<svg width="193" height="38" viewBox="0 0 193 38" fill="none" xmlns="http://www.w3.org/2000/svg">
<rect width="143" height="38" rx="6" fill="#EBE5F9"/>
<path d="M19 9.375C16.995 9.37727 15.0728 10.1748 13.655 11.5925C12.2373 13.0103 11.4398 14.9325 11.4375 16.9375C11.4375 23.4086 18.3125 28.2984 18.6047 28.5047C18.7218 28.5827 18.8593 28.6243 19 28.6243C19.1407 28.6243 19.2782 28.5827 19.3953 28.5047C19.6875 28.2984 26.5625 23.4086 26.5625 16.9375C26.5602 14.9325 25.7627 13.0103 24.345 11.5925C22.9272 10.1748 21.005 9.37727 19 9.375ZM19 14.1875C19.5439 14.1875 20.0756 14.3488 20.5278 14.651C20.9801 14.9531 21.3325 15.3826 21.5407 15.8851C21.7488 16.3876 21.8033 16.9406 21.6972 17.474C21.5911 18.0074 21.3291 18.4974 20.9445 18.882C20.5599 19.2666 20.0699 19.5286 19.5365 19.6347C19.0031 19.7408 18.4501 19.6863 17.9476 19.4782C17.4451 19.27 17.0156 18.9176 16.7135 18.4653C16.4113 18.0131 16.25 17.4814 16.25 16.9375C16.25 16.2082 16.5397 15.5087 17.0555 14.993C17.5712 14.4772 18.2707 14.1875 19 14.1875Z" fill="#8047F8"/>
<path d="M38.8262 20.0967H36.167V19.0234H38.8262C39.3411 19.0234 39.7581 18.9414 40.0771 18.7773C40.3962 18.6133 40.6286 18.3854 40.7744 18.0938C40.9248 17.8021 41 17.4694 41 17.0957C41 16.7539 40.9248 16.4326 40.7744 16.1318C40.6286 15.8311 40.3962 15.5895 40.0771 15.4072C39.7581 15.2204 39.3411 15.127 38.8262 15.127H36.4746V24H35.1553V14.0469H38.8262C39.5781 14.0469 40.2139 14.1768 40.7334 14.4365C41.2529 14.6963 41.6471 15.0563 41.916 15.5166C42.1849 15.9723 42.3193 16.4941 42.3193 17.082C42.3193 17.7201 42.1849 18.2646 41.916 18.7158C41.6471 19.167 41.2529 19.5111 40.7334 19.748C40.2139 19.9805 39.5781 20.0967 38.8262 20.0967ZM43.3652 20.3838V20.2266C43.3652 19.6934 43.4427 19.1989 43.5977 18.7432C43.7526 18.2829 43.9759 17.8841 44.2676 17.5469C44.5592 17.2051 44.9124 16.9408 45.3271 16.7539C45.7419 16.5625 46.2067 16.4668 46.7217 16.4668C47.2412 16.4668 47.7083 16.5625 48.123 16.7539C48.5423 16.9408 48.8978 17.2051 49.1895 17.5469C49.4857 17.8841 49.7113 18.2829 49.8662 18.7432C50.0212 19.1989 50.0986 19.6934 50.0986 20.2266V20.3838C50.0986 20.917 50.0212 21.4115 49.8662 21.8672C49.7113 22.3229 49.4857 22.7217 49.1895 23.0635C48.8978 23.4007 48.5446 23.665 48.1299 23.8564C47.7197 24.0433 47.2549 24.1367 46.7354 24.1367C46.2158 24.1367 45.7487 24.0433 45.334 23.8564C44.9193 23.665 44.5638 23.4007 44.2676 23.0635C43.9759 22.7217 43.7526 22.3229 43.5977 21.8672C43.4427 21.4115 43.3652 20.917 43.3652 20.3838ZM44.6299 20.2266V20.3838C44.6299 20.7529 44.6732 21.1016 44.7598 21.4297C44.8464 21.7533 44.9762 22.0404 45.1494 22.291C45.3271 22.5417 45.5482 22.7399 45.8125 22.8857C46.0768 23.027 46.3844 23.0977 46.7354 23.0977C47.0817 23.0977 47.3848 23.027 47.6445 22.8857C47.9089 22.7399 48.1276 22.5417 48.3008 22.291C48.474 22.0404 48.6038 21.7533 48.6904 21.4297C48.7816 21.1016 48.8271 20.7529 48.8271 20.3838V20.2266C48.8271 19.862 48.7816 19.5179 48.6904 19.1943C48.6038 18.8662 48.4717 18.5768 48.2939 18.3262C48.1208 18.071 47.902 17.8704 47.6377 17.7246C47.3779 17.5788 47.0726 17.5059 46.7217 17.5059C46.3753 17.5059 46.07 17.5788 45.8057 17.7246C45.5459 17.8704 45.3271 18.071 45.1494 18.3262C44.9762 18.5768 44.8464 18.8662 44.7598 19.1943C44.6732 19.5179 44.6299 19.862 44.6299 20.2266ZM52.9492 17.7656V24H51.6846V16.6035H52.915L52.9492 17.7656ZM55.2598 16.5625L55.2529 17.7383C55.1481 17.7155 55.0479 17.7018 54.9521 17.6973C54.861 17.6882 54.7562 17.6836 54.6377 17.6836C54.346 17.6836 54.0885 17.7292 53.8652 17.8203C53.6419 17.9115 53.4528 18.0391 53.2979 18.2031C53.1429 18.3672 53.0199 18.5632 52.9287 18.791C52.8421 19.0143 52.7852 19.2604 52.7578 19.5293L52.4023 19.7344C52.4023 19.2878 52.4456 18.8685 52.5322 18.4766C52.6234 18.0846 52.7624 17.7383 52.9492 17.4375C53.1361 17.1322 53.373 16.8952 53.6602 16.7266C53.9518 16.5534 54.2982 16.4668 54.6992 16.4668C54.7904 16.4668 54.8952 16.4782 55.0137 16.501C55.1322 16.5192 55.2142 16.5397 55.2598 16.5625ZM59.8672 16.6035V17.5742H55.8682V16.6035H59.8672ZM57.2217 14.8057H58.4863V22.168C58.4863 22.4186 58.5251 22.6077 58.6025 22.7354C58.68 22.863 58.7803 22.9473 58.9033 22.9883C59.0264 23.0293 59.1585 23.0498 59.2998 23.0498C59.4046 23.0498 59.514 23.0407 59.6279 23.0225C59.7464 22.9997 59.8353 22.9814 59.8945 22.9678L59.9014 24C59.8011 24.0319 59.6689 24.0615 59.5049 24.0889C59.3454 24.1208 59.1517 24.1367 58.9238 24.1367C58.6139 24.1367 58.3291 24.0752 58.0693 23.9521C57.8096 23.8291 57.6022 23.624 57.4473 23.3369C57.2969 23.0452 57.2217 22.6533 57.2217 22.1611V14.8057ZM60.8789 20.3838V20.2266C60.8789 19.6934 60.9564 19.1989 61.1113 18.7432C61.2663 18.2829 61.4896 17.8841 61.7812 17.5469C62.0729 17.2051 62.4261 16.9408 62.8408 16.7539C63.2555 16.5625 63.7204 16.4668 64.2354 16.4668C64.7549 16.4668 65.222 16.5625 65.6367 16.7539C66.056 16.9408 66.4115 17.2051 66.7031 17.5469C66.9993 17.8841 67.2249 18.2829 67.3799 18.7432C67.5348 19.1989 67.6123 19.6934 67.6123 20.2266V20.3838C67.6123 20.917 67.5348 21.4115 67.3799 21.8672C67.2249 22.3229 66.9993 22.7217 66.7031 23.0635C66.4115 23.4007 66.0583 23.665 65.6436 23.8564C65.2334 24.0433 64.7686 24.1367 64.249 24.1367C63.7295 24.1367 63.2624 24.0433 62.8477 23.8564C62.4329 23.665 62.0775 23.4007 61.7812 23.0635C61.4896 22.7217 61.2663 22.3229 61.1113 21.8672C60.9564 21.4115 60.8789 20.917 60.8789 20.3838ZM62.1436 20.2266V20.3838C62.1436 20.7529 62.1868 21.1016 62.2734 21.4297C62.36 21.7533 62.4899 22.0404 62.6631 22.291C62.8408 22.5417 63.0618 22.7399 63.3262 22.8857C63.5905 23.027 63.8981 23.0977 64.249 23.0977C64.5954 23.0977 64.8984 23.027 65.1582 22.8857C65.4225 22.7399 65.6413 22.5417 65.8145 22.291C65.9876 22.0404 66.1175 21.7533 66.2041 21.4297C66.2952 21.1016 66.3408 20.7529 66.3408 20.3838V20.2266C66.3408 19.862 66.2952 19.5179 66.2041 19.1943C66.1175 18.8662 65.9854 18.5768 65.8076 18.3262C65.6344 18.071 65.4157 17.8704 65.1514 17.7246C64.8916 17.5788 64.5863 17.5059 64.2354 17.5059C63.889 17.5059 63.5837 17.5788 63.3193 17.7246C63.0596 17.8704 62.8408 18.071 62.6631 18.3262C62.4899 18.5768 62.36 18.8662 62.2734 19.1943C62.1868 19.5179 62.1436 19.862 62.1436 20.2266ZM76.5469 14.9287L73.252 24H71.9053L75.6992 14.0469H76.5674L76.5469 14.9287ZM79.3086 24L76.0068 14.9287L75.9863 14.0469H76.8545L80.6621 24H79.3086ZM79.1377 20.3154V21.3955H73.5459V20.3154H79.1377ZM83.1777 13.5V24H81.9062V13.5H83.1777ZM88.2773 24.1367C87.7624 24.1367 87.2952 24.0501 86.876 23.877C86.4613 23.6992 86.1035 23.4508 85.8027 23.1318C85.5065 22.8128 85.2786 22.4346 85.1191 21.9971C84.9596 21.5596 84.8799 21.0811 84.8799 20.5615V20.2744C84.8799 19.6729 84.9688 19.1374 85.1465 18.668C85.3242 18.194 85.5658 17.793 85.8711 17.4648C86.1764 17.1367 86.5228 16.8883 86.9102 16.7197C87.2975 16.5511 87.6986 16.4668 88.1133 16.4668C88.6419 16.4668 89.0977 16.5579 89.4805 16.7402C89.8678 16.9225 90.1846 17.1777 90.4307 17.5059C90.6768 17.8294 90.859 18.2122 90.9775 18.6543C91.096 19.0918 91.1553 19.5703 91.1553 20.0898V20.6572H85.6318V19.625H89.8906V19.5293C89.8724 19.2012 89.804 18.8822 89.6855 18.5723C89.5716 18.2624 89.3893 18.0072 89.1387 17.8066C88.888 17.6061 88.5462 17.5059 88.1133 17.5059C87.8262 17.5059 87.5618 17.5674 87.3203 17.6904C87.0788 17.8089 86.8714 17.9867 86.6982 18.2236C86.5251 18.4606 86.3906 18.75 86.2949 19.0918C86.1992 19.4336 86.1514 19.8278 86.1514 20.2744V20.5615C86.1514 20.9124 86.1992 21.2428 86.2949 21.5527C86.3952 21.8581 86.5387 22.127 86.7256 22.3594C86.917 22.5918 87.1471 22.7741 87.416 22.9062C87.6895 23.0384 87.9993 23.1045 88.3457 23.1045C88.7923 23.1045 89.1706 23.0133 89.4805 22.8311C89.7904 22.6488 90.0615 22.4049 90.2939 22.0996L91.0596 22.708C90.9001 22.9495 90.6973 23.1797 90.4512 23.3984C90.2051 23.6172 89.902 23.7949 89.542 23.9316C89.1865 24.0684 88.765 24.1367 88.2773 24.1367ZM97.4238 16.6035H98.5723V23.8428C98.5723 24.4945 98.4401 25.0505 98.1758 25.5107C97.9115 25.971 97.5423 26.3197 97.0684 26.5566C96.599 26.7982 96.0566 26.9189 95.4414 26.9189C95.1862 26.9189 94.8854 26.8779 94.5391 26.7959C94.1973 26.7184 93.86 26.584 93.5273 26.3926C93.1992 26.2057 92.9235 25.9528 92.7002 25.6338L93.3633 24.8818C93.6732 25.2555 93.9967 25.5153 94.334 25.6611C94.6758 25.807 95.013 25.8799 95.3457 25.8799C95.7467 25.8799 96.0931 25.8047 96.3848 25.6543C96.6764 25.5039 96.902 25.2806 97.0615 24.9844C97.2256 24.6927 97.3076 24.3327 97.3076 23.9043V18.2305L97.4238 16.6035ZM92.3311 20.3838V20.2402C92.3311 19.6751 92.3971 19.1624 92.5293 18.7021C92.666 18.2373 92.8597 17.8385 93.1104 17.5059C93.3656 17.1732 93.6732 16.918 94.0332 16.7402C94.3932 16.5579 94.7988 16.4668 95.25 16.4668C95.7148 16.4668 96.1204 16.5488 96.4668 16.7129C96.8177 16.8724 97.1139 17.1071 97.3555 17.417C97.6016 17.7223 97.7952 18.0915 97.9365 18.5244C98.0778 18.9574 98.1758 19.4473 98.2305 19.9941V20.623C98.1803 21.1654 98.0824 21.653 97.9365 22.0859C97.7952 22.5189 97.6016 22.888 97.3555 23.1934C97.1139 23.4987 96.8177 23.7334 96.4668 23.8975C96.1159 24.057 95.7057 24.1367 95.2363 24.1367C94.7943 24.1367 94.3932 24.0433 94.0332 23.8564C93.6777 23.6696 93.3724 23.4076 93.1172 23.0703C92.862 22.7331 92.666 22.3366 92.5293 21.8809C92.3971 21.4206 92.3311 20.9215 92.3311 20.3838ZM93.5957 20.2402V20.3838C93.5957 20.7529 93.6322 21.0993 93.7051 21.4229C93.7826 21.7464 93.8988 22.0312 94.0537 22.2773C94.2132 22.5234 94.416 22.7171 94.6621 22.8584C94.9082 22.9951 95.2021 23.0635 95.5439 23.0635C95.9632 23.0635 96.3096 22.9746 96.583 22.7969C96.8564 22.6191 97.0729 22.3844 97.2324 22.0928C97.3965 21.8011 97.5241 21.4844 97.6152 21.1426V19.4951C97.5651 19.2445 97.4876 19.0029 97.3828 18.7705C97.2826 18.5335 97.1504 18.3239 96.9863 18.1416C96.8268 17.9548 96.6286 17.8066 96.3916 17.6973C96.1546 17.5879 95.8766 17.5332 95.5576 17.5332C95.2113 17.5332 94.9128 17.6061 94.6621 17.752C94.416 17.8932 94.2132 18.0892 94.0537 18.3398C93.8988 18.5859 93.7826 18.873 93.7051 19.2012C93.6322 19.5247 93.5957 19.8711 93.5957 20.2402ZM101.758 17.7656V24H100.493V16.6035H101.724L101.758 17.7656ZM104.068 16.5625L104.062 17.7383C103.957 17.7155 103.856 17.7018 103.761 17.6973C103.67 17.6882 103.565 17.6836 103.446 17.6836C103.155 17.6836 102.897 17.7292 102.674 17.8203C102.451 17.9115 102.261 18.0391 102.106 18.2031C101.951 18.3672 101.828 18.5632 101.737 18.791C101.651 19.0143 101.594 19.2604 101.566 19.5293L101.211 19.7344C101.211 19.2878 101.254 18.8685 101.341 18.4766C101.432 18.0846 101.571 17.7383 101.758 17.4375C101.945 17.1322 102.182 16.8952 102.469 16.7266C102.76 16.5534 103.107 16.4668 103.508 16.4668C103.599 16.4668 103.704 16.4782 103.822 16.501C103.941 16.5192 104.023 16.5397 104.068 16.5625ZM108.17 24.1367C107.655 24.1367 107.188 24.0501 106.769 23.877C106.354 23.6992 105.996 23.4508 105.695 23.1318C105.399 22.8128 105.171 22.4346 105.012 21.9971C104.852 21.5596 104.772 21.0811 104.772 20.5615V20.2744C104.772 19.6729 104.861 19.1374 105.039 18.668C105.217 18.194 105.458 17.793 105.764 17.4648C106.069 17.1367 106.415 16.8883 106.803 16.7197C107.19 16.5511 107.591 16.4668 108.006 16.4668C108.535 16.4668 108.99 16.5579 109.373 16.7402C109.76 16.9225 110.077 17.1777 110.323 17.5059C110.569 17.8294 110.752 18.2122 110.87 18.6543C110.989 19.0918 111.048 19.5703 111.048 20.0898V20.6572H105.524V19.625H109.783V19.5293C109.765 19.2012 109.697 18.8822 109.578 18.5723C109.464 18.2624 109.282 18.0072 109.031 17.8066C108.781 17.6061 108.439 17.5059 108.006 17.5059C107.719 17.5059 107.454 17.5674 107.213 17.6904C106.971 17.8089 106.764 17.9867 106.591 18.2236C106.418 18.4606 106.283 18.75 106.188 19.0918C106.092 19.4336 106.044 19.8278 106.044 20.2744V20.5615C106.044 20.9124 106.092 21.2428 106.188 21.5527C106.288 21.8581 106.431 22.127 106.618 22.3594C106.81 22.5918 107.04 22.7741 107.309 22.9062C107.582 23.0384 107.892 23.1045 108.238 23.1045C108.685 23.1045 109.063 23.0133 109.373 22.8311C109.683 22.6488 109.954 22.4049 110.187 22.0996L110.952 22.708C110.793 22.9495 110.59 23.1797 110.344 23.3984C110.098 23.6172 109.795 23.7949 109.435 23.9316C109.079 24.0684 108.658 24.1367 108.17 24.1367ZM113.673 22.4961V23.5146C113.673 23.9294 113.568 24.3669 113.358 24.8271C113.149 25.292 112.855 25.6794 112.477 25.9893L111.759 25.4902C111.905 25.2897 112.028 25.0846 112.128 24.875C112.228 24.6699 112.303 24.4557 112.354 24.2324C112.408 24.0137 112.436 23.7812 112.436 23.5352V22.4961H113.673ZM118.95 14.0469H122.245C122.993 14.0469 123.624 14.1608 124.139 14.3887C124.658 14.6165 125.052 14.9538 125.321 15.4004C125.595 15.8424 125.731 16.387 125.731 17.0342C125.731 17.4899 125.638 17.9069 125.451 18.2852C125.269 18.6589 125.005 18.9779 124.658 19.2422C124.316 19.502 123.906 19.6956 123.428 19.8232L123.059 19.9668H119.962L119.948 18.8936H122.286C122.76 18.8936 123.154 18.8115 123.469 18.6475C123.783 18.4788 124.02 18.2533 124.18 17.9707C124.339 17.6882 124.419 17.376 124.419 17.0342C124.419 16.6514 124.344 16.3164 124.193 16.0293C124.043 15.7422 123.806 15.5212 123.482 15.3662C123.163 15.2067 122.751 15.127 122.245 15.127H120.27V24H118.95V14.0469ZM124.768 24L122.348 19.4883L123.722 19.4814L126.176 23.918V24H124.768ZM132.882 21.4844C132.882 21.252 132.845 21.0469 132.772 20.8691C132.704 20.6868 132.581 20.5228 132.403 20.377C132.23 20.2311 131.989 20.0921 131.679 19.96C131.373 19.8278 130.986 19.6934 130.517 19.5566C130.024 19.4108 129.58 19.249 129.184 19.0713C128.787 18.889 128.448 18.6816 128.165 18.4492C127.882 18.2168 127.666 17.9502 127.516 17.6494C127.365 17.3486 127.29 17.0046 127.29 16.6172C127.29 16.2298 127.37 15.8721 127.529 15.5439C127.689 15.2158 127.917 14.931 128.213 14.6895C128.514 14.4434 128.871 14.252 129.286 14.1152C129.701 13.9785 130.163 13.9102 130.674 13.9102C131.421 13.9102 132.055 14.0537 132.574 14.3408C133.098 14.6234 133.497 14.9948 133.771 15.4551C134.044 15.9108 134.181 16.3984 134.181 16.918H132.868C132.868 16.5443 132.788 16.2139 132.629 15.9268C132.469 15.6351 132.228 15.4072 131.904 15.2432C131.581 15.0745 131.171 14.9902 130.674 14.9902C130.204 14.9902 129.817 15.0609 129.512 15.2021C129.206 15.3434 128.979 15.5348 128.828 15.7764C128.682 16.0179 128.609 16.2936 128.609 16.6035C128.609 16.8132 128.653 17.0046 128.739 17.1777C128.83 17.3464 128.969 17.5036 129.156 17.6494C129.348 17.7952 129.589 17.9297 129.881 18.0527C130.177 18.1758 130.53 18.2943 130.94 18.4082C131.506 18.5677 131.993 18.7454 132.403 18.9414C132.813 19.1374 133.151 19.3584 133.415 19.6045C133.684 19.846 133.882 20.1217 134.01 20.4316C134.142 20.737 134.208 21.0833 134.208 21.4707C134.208 21.8763 134.126 22.2432 133.962 22.5713C133.798 22.8994 133.563 23.1797 133.258 23.4121C132.952 23.6445 132.586 23.8245 132.157 23.9521C131.733 24.0752 131.259 24.1367 130.735 24.1367C130.275 24.1367 129.822 24.0729 129.375 23.9453C128.933 23.8177 128.53 23.6263 128.165 23.3711C127.805 23.1159 127.516 22.8014 127.297 22.4277C127.083 22.0495 126.976 21.612 126.976 21.1152H128.288C128.288 21.457 128.354 21.751 128.486 21.9971C128.618 22.2386 128.799 22.4391 129.026 22.5986C129.259 22.7581 129.521 22.8766 129.812 22.9541C130.109 23.027 130.416 23.0635 130.735 23.0635C131.196 23.0635 131.585 22.9997 131.904 22.8721C132.223 22.7445 132.465 22.5622 132.629 22.3252C132.798 22.0882 132.882 21.8079 132.882 21.4844Z" fill="#4B2995"/>
<rect x="155" width="38" height="38" rx="6" fill="#F1E9C9"/>
<path d="M182.241 13.6203L181.193 19.3695C181.106 19.8445 180.856 20.274 180.486 20.5834C180.115 20.8927 179.648 21.0623 179.165 21.0625H169.196L169.574 23.125H178.812C179.22 23.125 179.619 23.246 179.958 23.4726C180.298 23.6992 180.562 24.0213 180.718 24.3982C180.874 24.7751 180.915 25.1898 180.835 25.5899C180.756 25.99 180.559 26.3575 180.271 26.6459C179.982 26.9344 179.615 27.1308 179.215 27.2104C178.815 27.2899 178.4 27.2491 178.023 27.093C177.646 26.9369 177.324 26.6725 177.098 26.3334C176.871 25.9942 176.75 25.5954 176.75 25.1875C176.75 24.9531 176.791 24.7205 176.87 24.5H171.817C171.897 24.7205 171.937 24.9531 171.938 25.1875C171.938 25.5203 171.858 25.8482 171.705 26.1434C171.551 26.4386 171.328 26.6923 171.055 26.8827C170.782 27.0732 170.468 27.1947 170.137 27.2371C169.807 27.2794 169.472 27.2413 169.16 27.1259C168.848 27.0105 168.568 26.8213 168.345 26.5745C168.122 26.3276 167.962 26.0304 167.878 25.7083C167.795 25.3861 167.791 25.0486 167.866 24.7244C167.941 24.4003 168.094 24.0992 168.311 23.8469L165.93 10.75H164.375C164.193 10.75 164.018 10.6776 163.889 10.5486C163.76 10.4197 163.688 10.2448 163.688 10.0625C163.688 9.88016 163.76 9.7053 163.889 9.57636C164.018 9.44743 164.193 9.375 164.375 9.375H165.93C166.251 9.3757 166.562 9.48864 166.808 9.69424C167.055 9.89985 167.222 10.1852 167.28 10.5008L167.701 12.8125H181.562C181.663 12.8127 181.762 12.8352 181.853 12.8783C181.943 12.9214 182.023 12.984 182.087 13.0617C182.153 13.137 182.202 13.2264 182.228 13.3232C182.255 13.42 182.26 13.5216 182.241 13.6203Z" fill="#C47F17"/>
</svg>
